# AST/ASF file generated using VICON BodyLanguage
# -----------------------------------------------
:version 1.10
:name VICON
:units
  mass 1.0
  length 0.45
  angle deg
:documentation
   .ast/.asf automatically generated from VICON data using
   VICON BodyBuilder and BodyLanguage model FoxedUp or BRILLIANT.MOD
:root
   order TX TY TZ RX RY RZ
   axis XYZ
   position 0 0 0  
   orientation 0 0 0 
:bonedata
  begin
     id 1 
     name lhipjoint
     direction 0.528046 -0.759594 0.379717 
     length 2.39752 
     axis 0 0 0  XYZ
  end
  begin
     id 2 
     name lfemur
     direction 0.34202 -0.939693 0  
     length 7.31175  
     axis 0 0 20  XYZ
    dof rx ry rz
    limits (-160.0 20.0)
           (-70.0 70.0)
           (-60.0 70.0)
  end
  begin
     id 3 
     name ltibia
     direction 0.34202 -0.939693 0   
     length 7.52482   
     axis 0 0 20   XYZ
    dof rx
    limits (-10.0 170.0)
  end
  begin
     id 4 
     name lfoot
     direction 0.0675379 -0.185559 0.980309   
     length 2.00961   
     axis -90 7.62852e-016 20   XYZ
    dof rx rz
    limits (-45.0 90.0)
           (-70.0 20.0)
  end
  begin
     id 5 
     name ltoes
     direction 1.5352e-011 -4.22286e-011 1   
     length 1.01383   
     axis -90 7.62852e-016 20   XYZ
    dof rx
    limits (-90.0 20.0)
  end
  begin
     id 6 
     name rhipjoint
     direction -0.510274 -0.769251 0.384544   
     length 2.36742  
     axis 0 0 0  XYZ 
  end
  begin
     id 7 
     name rfemur
     direction -0.34202 -0.939693 0   
     length 7.45325   
     axis 0 0 -20   XYZ
    dof rx ry rz
    limits (-160.0 20.0)
           (-70.0 70.0)
           (-70.0 60.0)
  end
  begin
     id 8 
     name rtibia
     direction -0.34202 -0.939693 0   
     length 7.49587   
     axis 0 0 -20   XYZ
    dof rx
    limits (-10.0 170.0)
 end
 begin
     id 9 
     name rfoot
     direction -0.106475 -0.292536 0.950308   
     length 2.20898  
     axis -90 -7.62852e-016 -20   XYZ
    dof rx rz
    limits (-45.0 90.0)
           (-20.0 70.0)
  end
  begin
     id 10 
     name rtoes
     direction -1.53597e-011 -4.22023e-011 1   
     length 1.10065   
     axis -90 -7.62852e-016 -20   XYZ
    dof rx
    limits (-90.0 20.0)
  end
  begin
     id 11 
     name lowerback
     direction 0.0260024 0.998026 -0.0571652   
     length 2.11214   
     axis 0 0 0   XYZ
    dof rx ry rz
    limits (-20.0 45.0)
           (-30.0 30.0)
           (-30.0 30.0)
  end
  begin
     id 12 
     name upperback
     direction 0.0216202 0.999542 -0.0211766   
     length 2.11689   
     axis 0 0 0   XYZ
    dof rx ry rz
    limits (-20.0 45.0)
           (-30.0 30.0)
           (-30.0 30.0)
  end
  begin
     id 13 
     name thorax
     direction 0.00883312 0.999944 0.00589057   
     length 2.11821   
     axis 0 0 0   XYZ
    dof rx ry rz
    limits (-20.0 45.0)
           (-30.0 30.0)
           (-30.0 30.0)
  end
  begin
     id 14 
     name lowerneck
     direction -0.059386 0.994433 0.0870401   
     length 1.81176   
     axis 0 0 0   XYZ
    dof rx ry rz
    limits (-20.0 45.0)
           (-30.0 30.0)
           (-30.0 30.0)
  end
  begin
     id 15 
     name upperneck
     direction 0.0506457 0.97328 -0.223967   
     length 1.82382   
     axis 0 0 0   XYZ
    dof rx ry rz
    limits (-20.0 45.0)
           (-30.0 30.0)
           (-30.0 30.0)
  end
  begin
     id 16
     name head
     direction 0.0205902 0.996147 -0.0852487  
     length 1.84805  
     axis 0 0 0   XYZ
    dof rx ry rz
    limits (-20.0 45.0)
           (-30.0 30.0)
           (-30.0 30.0)
  end
  begin
     id 17 
     name lclavicle
     direction 0.949493 0.303881 -0.0782325  
     length 3.60584  
     axis 0 0 0   XYZ
    dof ry rz
    limits (-20.0 10.0)
           (0.0 20.0)
  end
  begin
     id 18 
     name lhumerus
     direction 1 -4.48965e-011 1.48782e-027   
     length 4.95681   
     axis 180 -30 -90   XYZ
    dof rx ry rz
    limits (-60.0 90.0)
           (-90.0 90.0)
           (-90.0 90.0)
  end
  begin
     id 19
     name lradius
     direction 1 -4.48952e-011 2.06528e-027   
     length 3.40915   
     axis 180 -30 -90   XYZ
    dof rx
    limits (-10.0 170.0)
  end
  begin
     id 20
     name lwrist
     direction 1 -4.48964e-011 1.28021e-027   
     length 1.70457   
     axis -1.61767e-015 90 90   XYZ
    dof ry
    limits (-180.0 0.0)
 end
  begin
     id 21 
     name lhand
     direction 1 -4.49094e-011 2.54887e-027   
     length 0.616403   
     axis -1.63363e-015 90 90   XYZ
    dof rx rz
    limits (-90.0 90.0)
           (-45.0 45.0)
  end
  begin
     id 22 
     name lfingers
     direction 1 -4.49002e-011 5.11407e-027   
     length 0.49696   
     axis -3.26723e-015 90 90   XYZ
    dof rx
    limits (0.0 90.0)
  end
  begin
     id 23
     name lthumb
     direction 0.707107 -6.34998e-011 0.707107   
     length 0.713539   
     axis -90 45 -2.25915e-014   XYZ
    dof rx rz
    limits (-45.0 45.0)
           (-45.0 45.0)
  end
  begin
     id 24 
     name rclavicle
     direction -0.937751 0.334612 -0.0930482   
     length 3.46287  
     axis 0 0 0   XYZ 
    dof ry rz
    limits (-10.0 20.0)
           (-20.0 0.0)
  end
  begin
     id 25 
     name rhumerus
     direction -1 -4.48962e-011 3.59972e-027  
     length 5.352   
     axis 180 30 90   XYZ
    dof rx ry rz
    limits (-90.0 60.0)
           (-90.0 90.0)
           (-90.0 90.0)
  end
  begin
     id 26 
     name rradius
     direction -1 -4.48987e-011 -3.76925e-027   
     length 3.43721   
     axis 180 30 90   XYZ
    dof rx
    limits (-10.0 170.0)
  end
  begin
     id 27 
     name rwrist
     direction -1 -4.48943e-011 1.28112e-027   
     length 1.7186   
     axis -1.61767e-015 -90 -90   XYZ
    dof ry
    limits (-180.0 0.0)
  end
  begin
     id 28
     name rhand
     direction -1 -4.49027e-011 2.55483e-027   
     length 0.72009   
     axis -1.63363e-015 -90 -90   XYZ
    dof rx rz
    limits (-90.0 90.0)
           (-45.0 45.0)
  end
  begin
     id 29
     name rfingers
     direction -1 -4.48827e-011 5.14506e-027   
     length 0.580555   
     axis -3.26723e-015 -90 -90   XYZ
    dof rx
    limits (0.0 90.0)
  end
  begin
     id 30
     name rthumb
     direction -0.707107 -6.34936e-011 0.707107   
     length 0.833564   
     axis -90 -45 2.25915e-014   XYZ
    dof rx rz
    limits (-45.0 45.0)
           (-45.0 45.0)
  end
:hierarchy
  begin
    root lhipjoint rhipjoint lowerback
    lhipjoint lfemur
    lfemur ltibia
    ltibia lfoot
    lfoot ltoes
    rhipjoint rfemur
    rfemur rtibia
    rtibia rfoot
    rfoot rtoes
    lowerback upperback
    upperback thorax
    thorax lowerneck lclavicle rclavicle
    lowerneck upperneck
    upperneck head
    lclavicle lhumerus
    lhumerus lradius
    lradius lwrist
    lwrist lhand lthumb
    lhand lfingers
    rclavicle rhumerus
    rhumerus rradius
    rradius rwrist
    rwrist rhand rthumb
    rhand rfingers
  end

#!OML:ASF H:\Terrain\Patient Classification 1\Terrain2\Thursday\justin.ASF
:FULLY-SPECIFIED
:DEGREES
366
root -0.0556914 17.7058 21.6725 86.1298 -88.0281 -83.8044
lowerback 6.05911 0.216257 -2.54535
upperback 4.14608 0.0499382 2.29506
thorax 0.874066 -0.103309 3.79462
lowerneck -10.7568 0.0591991 -10.4093
upperneck 39.5209 -1.06237 5.02266
head 15.8875 -1.96304 3.71493
rclavicle 2.18663e-015 -2.26615e-014
rhumerus -31.198 -2.09723 -83.8742
rradius 35.3639
rwrist -10.3709
rhand -18.0212 10.6837
rfingers 7.12502
rthumb 8.24984 -19.1352
lclavicle 2.18663e-015 -2.26615e-014
lhumerus -28.8542 6.51121 80.0637
lradius 43.1868
lwrist 8.29497
lhand -18.7112 21.8984
lfingers 7.12502
lthumb 7.58395 51.7424
rfemur -18.3588 -4.78826 25.735
rtibia 35.3803
rfoot -18.0341 -0.492397
rtoes 11.111
lfemur -10.4627 5.9175 -17.1651
ltibia 29.2188
lfoot -14.3891 -13.3434
ltoes 15.31
367
root -0.135694 17.6988 21.66 92.7991 -87.5087 -90.5274
lowerback 5.89912 0.269831 -1.93644
upperback 4.17188 0.145709 2.52049
thorax 0.980892 -0.0500685 3.67889
lowerneck -10.8539 0.0562205 -10.4813
upperneck 39.4368 -0.928607 4.80734
head 15.8562 -1.93653 3.65248
rclavicle -8.94531e-016 -1.61016e-014
rhumerus -31.049 -2.3829 -83.5483
rradius 35.0083
rwrist -9.59025
rhand -18.4835 10.1224
rfingers 7.12502
rthumb 7.80369 -19.7135
lclavicle -8.94531e-016 -1.61016e-014
lhumerus -28.9242 6.78301 80.2117
lradius 43.0627
lwrist 8.54826
lhand -18.8806 21.5227
lfingers 7.12502
lthumb 7.42041 51.3726
rfemur -17.8999 -5.27546 26.3783
rtibia 35.1473
rfoot -18.2255 0.130926
rtoes 8.48591
lfemur -10.313 5.80128 -16.5491
ltibia 29.677
lfoot -14.6823 -12.9655
ltoes 14.3755
368
root -0.212751 17.6951 21.648 96.7307 -87.3719 -94.5713
lowerback 5.83644 0.355838 -1.71486
upperback 4.14719 0.270865 2.55661
thorax 0.980607 0.0171045 3.58467
lowerneck -10.8056 0.0613084 -10.305
upperneck 39.3727 -0.869849 4.56065
head 15.8048 -1.91366 3.51884
rclavicle -1.3418e-015 -8.54774e-015
rhumerus -31.0355 -2.86481 -83.2263
rradius 34.5002
rwrist -9.37877
rhand -18.1904 10.7574
rfingers 7.12502
rthumb 8.08659 -19.0679
lclavicle -1.3418e-015 -8.54774e-015
lhumerus -29.1245 6.89046 80.2601
lradius 42.9293
lwrist 8.71944
lhand -19.3529 20.8317
lfingers 7.12502
lthumb 6.96453 50.6971
rfemur -17.3381 -5.28225 26.5533
rtibia 34.8567
rfoot -18.0954 0.480321
rtoes 9.64591
lfemur -10.1439 5.49951 -16.4011
ltibia 30.1868
lfoot -14.9899 -12.3709
ltoes 13.4165
369
root -0.287568 17.6883 21.6331 98.6689 -87.213 -96.6405
lowerback 5.83943 0.376786 -1.58856
upperback 4.10036 0.305362 2.60186
thorax 0.928148 0.0379094 3.55828
lowerneck -10.8352 0.163142 -10.044
upperneck 39.4513 -0.749813 4.45264
head 15.8359 -1.84456 3.44516
rclavicle -1.73937e-015 -1.8487e-014
rhumerus -31.029 -3.22066 -83.0456
rradius 33.94
rwrist -9.44695
rhand -17.8079 11.7298
rfingers 7.12502
rthumb 8.45576 -18.081
lclavicle -1.73937e-015 -1.8487e-014
lhumerus -29.417 7.09465 80.2201
lradius 42.8021
lwrist 8.31574
lhand -19.0001 20.6986
lfingers 7.12502
lthumb 7.30505 50.5525
rfemur -16.7331 -4.84004 26.7429
rtibia 34.5749
rfoot -17.7579 0.459949
rtoes 12.7411
lfemur -9.96979 5.3023 -16.2104
ltibia 30.7226
lfoot -15.2067 -11.8325
ltoes 12.4217
370
root -0.359218 17.6814 21.6205 101.151 -87.0473 -99.284
lowerback 5.86083 0.619683 -1.14093
upperback 4.1612 0.647693 2.39498
thorax 0.959412 0.219686 3.07376
lowerneck -11.1381 0.0237491 -9.57336
upperneck 39.6803 -1.14487 4.659
head 16.0636 -1.91879 3.40029
rclavicle 2.5842e-015 1.03368e-014
rhumerus -30.9149 -4.49268 -83.0792
rradius 33.5485
rwrist -9.03156
rhand -18.1313 11.3947
rfingers 7.12502
rthumb 8.14362 -18.4283
lclavicle 2.5842e-015 1.03368e-014
lhumerus -29.3002 6.37766 80.1363
lradius 42.698
lwrist 7.91243
lhand -18.4339 21.1067
lfingers 7.12502
lthumb 7.85154 50.9409
rfemur -16.1922 -4.89934 26.9203
rtibia 34.339
rfoot -17.6506 0.613811
rtoes 13.1643
lfemur -9.79713 5.14011 -16.0433
ltibia 31.2896
lfoot -15.4141 -11.2656
ltoes 11.3071
